<svg xmlns="http://www.w3.org/2000/svg" width="500" height="500" viewBox="0 0 375 375">
    <!-- Rounded rectangle background -->
    <rect x="0" y="0" width="375" height="375" rx="48" ry="48" fill="#7ed957" />

    <!-- Star/burst shape -->
    <path fill="#ffffff"
        d="M 152.535156 133.84375 C 163.203125 141.601562 173.558594 137.277344 175.5625 124.246094 L 184.257812 67.765625 C 186.261719 54.734375 189.539062 54.734375 191.542969 67.765625 L 200.234375 124.246094 C 202.242188 137.277344 212.605469 141.59375 223.261719 133.84375 L 272.382812 98.121094 C 283.042969 90.363281 285.421875 92.742188 277.664062 103.410156 L 241.941406 152.523438 C 234.183594 163.191406 238.5 173.546875 251.53125 175.550781 L 308.019531 184.242188 C 321.050781 186.25 321.050781 189.523438 308.019531 191.53125 L 251.53125 200.222656 C 238.5 202.230469 234.183594 212.589844 241.941406 223.25 L 277.664062 272.371094 C 285.421875 283.03125 283.042969 285.410156 272.382812 277.652344 L 223.261719 241.929688 C 212.605469 234.171875 202.242188 238.488281 200.234375 251.519531 L 191.542969 308.007812 C 189.539062 321.039062 186.261719 321.039062 184.257812 308.007812 L 175.5625 251.519531 C 173.558594 238.488281 163.195312 234.171875 152.535156 241.929688 L 103.421875 277.652344 C 92.765625 285.410156 90.789062 283.347656 99.058594 273.074219 L 139.6875 222.546875 C 147.949219 212.273438 144.019531 202.386719 130.964844 200.589844 L 66.589844 191.699219 C 53.535156 189.890625 53.5 186.746094 66.523438 184.699219 L 124.277344 175.628906 C 137.300781 173.585938 141.613281 163.183594 133.855469 152.523438 L 98.132812 103.410156 C 90.375 92.75 92.757812 90.371094 103.414062 98.128906 Z M 152.535156 133.84375 "
        fill-opacity="1" fill-rule="nonzero" />
</svg>