<svg xmlns="http://www.w3.org/2000/svg" fill="none" viewBox="0 0 56 35" height="35" width="56">
    <path fill="black"
        d="M43.1982 2.30934L44.3518 1.15359L43.1982 -3.8147e-06H43.0042L41.8506 1.15359L43.0042 2.30934H43.1982Z" />
    <mask height="34" width="56" y="0" x="0" maskUnits="userSpaceOnUse" style="mask-type:luminance" id="mask0_159_1814">
        <path fill="white" d="M55.2 -7.62939e-06H0V33.8531H55.2V-7.62939e-06Z" />
    </mask>
    <g mask="url(#mask0_159_1814)">
        <path fill="black"
            d="M18.5754 12.5234C20.6066 12.5234 21.5079 11.1692 21.5079 8.23674C21.5079 4.97649 20.0524 3.35498 17.8358 3.35498C15.9275 3.35498 14.6575 4.48271 14.6575 7.2923C14.6575 10.6366 16.0936 12.5234 18.5754 12.5234ZM17.7151 13.0775C14.9874 13.0775 13.1826 11.0679 13.1826 7.88958C13.1826 5.09939 14.9464 3.00783 18.5366 3.00783C21.3246 3.00783 23.0281 4.60776 23.0281 7.37639C23.0259 10.7811 20.8308 13.0775 17.7151 13.0775Z" />
    </g>
    <mask height="35" width="56" y="0" x="0" maskUnits="userSpaceOnUse" style="mask-type:luminance" id="mask1_159_1814">
        <path fill="white" d="M55.2014 -7.62939e-06H0.432617V34.5H55.2014V-7.62939e-06Z" />
    </mask>
    <g mask="url(#mask1_159_1814)">
        <path fill="black"
            d="M25.3392 6.77961L30.7319 6.57476C31.1632 6.53379 31.2645 6.28799 31.2645 5.93867C31.2645 4.40127 30.0549 3.31451 28.414 3.31451C26.5704 3.31451 25.4836 4.54358 25.3392 6.77961ZM32.7847 6.98446H31.3702L25.3198 6.92192V7.3122C25.3198 10.4495 26.8572 11.8446 29.1557 11.8446C30.9605 11.8446 32.0279 11.0856 32.7049 9.05445L32.8882 9.15795C32.2327 11.7843 30.9195 13.0349 28.4787 13.0349C25.6281 13.0349 23.8018 11.1482 23.8018 7.8448C23.8018 4.99423 25.6885 2.96304 29.0522 2.96304C31.4715 2.9652 32.8666 4.60611 32.7847 6.98446Z" />
        <path fill="black"
            d="M36.1024 2.97797H39.9577L39.6084 3.98278C38.4397 3.92025 37.271 3.87928 36.0808 3.85987C36.0592 4.96818 36.0592 9.38418 36.1024 10.3286C36.1476 10.9712 36.3223 11.3981 36.6285 11.6569C37.0576 12.0191 37.6268 11.976 37.6829 11.9695C39.0909 11.8445 39.947 9.32381 40.2639 8.39015C40.5723 7.48237 40.9324 6.042 40.8612 4.17253L41.0876 4.19409C41.1501 6.19078 40.7405 7.70447 40.4192 8.61225C40.0591 9.62353 38.9184 12.8407 36.9239 13.039C36.8765 13.0433 35.8932 13.1231 35.2355 12.487C34.7892 12.0558 34.6253 11.4003 34.6253 10.6391C34.6253 9.98362 34.7073 5.13422 34.6253 3.88359C34.0927 3.88359 33.558 3.88359 33.0254 3.903V3.69815C33.0297 3.67443 33.8577 3.40059 33.959 3.35315C35.2269 2.7494 35.5439 1.33059 35.891 0.067028H36.1024V2.97797Z" />
    </g>
    <mask height="35" width="56" y="0" x="0" maskUnits="userSpaceOnUse" style="mask-type:luminance" id="mask2_159_1814">
        <path fill="white" d="M55.2 -7.62939e-06H0V34.5H55.2V-7.62939e-06Z" />
    </mask>
    <g mask="url(#mask2_159_1814)">
        <path fill="black"
            d="M44.5948 12.3785L45.7031 12.5833V12.8291H40.8623V12.5833L41.6213 12.4604C42.5226 12.3181 42.5442 12.2146 42.5442 8.37863C42.5442 4.52325 42.5032 4.41975 41.7852 4.33782L40.8623 4.25588V4.02948C42.1345 3.72113 43.0358 3.41494 43.8164 3.04407L43.9802 3.1066C43.9802 4.60304 43.9608 5.73075 43.9608 7.10644C43.9587 12.1521 44.0406 12.275 44.5948 12.3785Z" />
    </g>
    <mask height="35" width="56" y="0" x="0" maskUnits="userSpaceOnUse" style="mask-type:luminance" id="mask3_159_1814">
        <path fill="white" d="M55.2 -7.62939e-06H0V34.5H55.2V-7.62939e-06Z" />
    </mask>
    <g mask="url(#mask3_159_1814)">
        <path fill="black"
            d="M47.1352 7.2105C47.1352 10.184 48.6941 11.8249 50.8482 11.8249C52.7134 11.8249 53.7203 11.1888 54.3564 9.28265L54.5203 9.38399C53.9468 11.8033 52.653 13.0345 50.3156 13.0345C47.4651 13.0345 45.6797 11.1478 45.6797 7.90697C45.6797 5.03484 47.8122 2.96484 51.094 2.96484C52.8988 2.96484 53.9662 3.45646 54.3759 3.74324C54.2724 4.72865 54.1904 5.99869 54.1494 7.3334H53.923L53.6363 5.83697C53.2266 3.95025 51.9134 3.45862 49.9038 3.45862C48.1184 3.519 47.1352 4.68768 47.1352 7.2105Z" />
        <path fill="black"
            d="M10.3289 4.95526L12.1229 10.4645C12.4442 11.6806 13.4684 12.5151 14.6846 12.5776V12.8342H9.49663V12.5776L10.8421 12.4504C10.9068 12.4504 11.034 12.321 10.9694 12.1938C10.2643 9.95129 9.75107 7.32498 8.72685 5.27654C8.27835 4.37954 7.57326 4.06041 6.74095 4.06041C4.43591 4.06041 3.47423 7.00586 3.47423 7.58373C3.47423 12.707 3.53892 12.3232 4.11463 12.3879L5.77926 12.5798V12.8364H0.399414V12.5798L1.10451 12.5151C2.0662 12.3232 2.0662 12.2585 2.0662 8.41604C2.0662 4.5736 2.00151 4.44423 1.29642 4.37954L0.399414 4.25232V4.06041C1.55301 3.74129 2.57723 3.42001 3.28232 3.09873L3.40954 3.16342L3.34485 6.49482C3.79551 3.60976 9.11282 1.49664 10.3289 4.95526Z" />
    </g>
    <mask height="34" width="56" y="0" x="0" maskUnits="userSpaceOnUse" style="mask-type:luminance" id="mask4_159_1814">
        <path fill="white" d="M55.2 -7.62939e-06H0V33.8531H55.2V-7.62939e-06Z" />
    </mask>
    <g mask="url(#mask4_159_1814)">
        <path fill="black"
            d="M25.7061 1.80196V1.33405C26.547 1.35562 27.6747 1.37502 28.5566 1.37502C29.3976 1.37502 30.5253 1.35562 31.3662 1.33405V1.80196C30.5059 1.78255 29.3976 1.78255 28.5566 1.78255C27.6747 1.78039 26.588 1.78039 25.7061 1.80196Z" />
    </g>
    <mask height="34" width="56" y="0" x="0" maskUnits="userSpaceOnUse" style="mask-type:luminance" id="mask5_159_1814">
        <path fill="white" d="M55.2014 -7.62939e-06H0.432617V33.8531H55.2014V-7.62939e-06Z" />
    </mask>
    <g mask="url(#mask5_159_1814)">
        <path fill="black"
            d="M38.2188 17.1308V16.6629C39.0597 16.6845 40.1874 16.7039 41.0693 16.7039C41.9103 16.7039 43.038 16.6823 43.8789 16.6629V17.1308C43.0186 17.1114 41.9103 17.1114 41.0693 17.1114C40.1874 17.1092 39.1007 17.1092 38.2188 17.1308Z" />
        <path fill="black"
            d="M8.14746 22.6147L10.8406 21.267L11.6104 20.3053H11.4185C10.0708 20.8832 8.72534 20.6913 8.72534 20.1134C8.72534 19.5355 10.073 18.9598 10.6487 19.5355C10.8406 19.7275 10.8406 18.9577 10.8406 18.5739C10.8406 17.8041 8.33937 18.7658 8.33937 20.3053C8.33937 20.8832 8.53128 21.4589 8.91724 21.4589L8.53343 21.8449L8.14746 22.6147Z" />
        <path fill="black"
            d="M25.2725 18.5739L26.2342 17.61L27.1958 18.5739H27.3877L28.5435 17.4181L27.3877 16.2645H27.1958L26.2342 17.2262L25.2725 16.2645H25.0806L23.9248 17.4181L25.0806 18.5739H25.2725Z" />
        <path fill="black"
            d="M51.2471 17.6105L52.4007 16.4569L51.2471 15.3033H51.0552L49.8994 16.4569L51.0552 17.6105H51.2471Z" />
        <path fill="black"
            d="M44.5118 26.461C39.5093 26.461 37.5859 25.8831 37.5859 23.3819C37.5859 21.6504 38.7395 19.9189 41.2408 19.9189C43.9339 19.9189 44.5118 22.4202 44.5118 25.3074V26.461ZM51.4377 18.9572L51.0517 19.727C52.3994 25.1155 50.4738 26.461 45.0875 26.461V25.3074C45.0875 21.6504 44.1258 18.3815 41.2386 18.3815C38.7374 18.3815 37.1978 20.8828 37.1978 23.384C37.1978 27.4248 39.5071 28.0027 44.3177 28.0027C42.5863 33.0052 36.814 32.6214 35.4663 29.9261L35.2744 30.118C36.0442 34.3507 43.356 36.2741 44.8934 28.0005H46.6249C52.0112 28.0005 52.781 23.7678 51.6274 18.9572H51.4377Z" />
        <path fill="black"
            d="M31.814 29.1542L30.8502 30.118L29.8885 29.1542H29.6966L28.543 30.3099L29.6966 31.4635H29.8885L30.8502 30.5018L31.814 31.4635H32.0059L33.1595 30.3099L32.0059 29.1542H31.814Z" />
        <path fill="black"
            d="M35.6609 18.9581H35.469L35.0852 19.7278C36.2388 24.3465 35.0852 26.4618 30.8525 26.4618C26.6198 26.4618 26.4278 23.7686 26.4278 19.9197H26.2359L26.044 20.1116C26.044 22.8048 25.8521 26.4618 21.6194 26.4618C19.502 26.4618 17.3867 25.692 17.3867 22.8048V15.1091H17.1948L17.0029 15.301V22.8048C17.0029 26.0758 14.3097 26.4618 9.69103 26.4618C5.84212 26.4618 2.37918 26.2699 1.80346 24.5384L1.41749 24.3465H1.22559C1.99537 27.6176 4.49662 28.0014 9.69103 28.0014C13.7318 28.0014 16.6169 27.8095 17.1948 25.5001C17.7727 27.4235 19.3122 28.0014 21.4275 28.0014C24.3126 28.0014 25.4683 26.8478 26.0462 25.5001C26.6241 27.4235 28.5474 28.0014 30.8568 28.0014C35.6609 28.0014 37.0086 24.5384 35.6609 18.9581Z" />
    </g>
</svg>